<mxfile host="app.diagrams.net" modified="2024-05-24T02:42:11.031Z" agent="Mozilla/5.0 (Windows NT 10.0; Win64; x64) AppleWebKit/537.36 (KHTML, like Gecko) Chrome/125.0.0.0 Safari/537.36" etag="wY52tQh3D_noikG2DzY4" version="24.4.7" type="github">
  <diagram name="第 1 页" id="csqRduWSbu1YWpJnYrp_">
    <mxGraphModel dx="1050" dy="557" grid="0" gridSize="10" guides="1" tooltips="1" connect="1" arrows="1" fold="1" page="1" pageScale="1" pageWidth="827" pageHeight="1169" math="0" shadow="0">
      <root>
        <mxCell id="0" />
        <mxCell id="1" parent="0" />
        <mxCell id="UIeDzAxWS5lL4gKu8RH2-1" style="edgeStyle=none;rounded=0;orthogonalLoop=1;jettySize=auto;html=1;exitX=0.5;exitY=0.5;exitDx=0;exitDy=0;exitPerimeter=0;entryX=0;entryY=0.5;entryDx=0;entryDy=0;strokeColor=default;endArrow=none;endFill=0;" parent="1" source="UIeDzAxWS5lL4gKu8RH2-7" target="UIeDzAxWS5lL4gKu8RH2-14" edge="1">
          <mxGeometry relative="1" as="geometry" />
        </mxCell>
        <mxCell id="UIeDzAxWS5lL4gKu8RH2-2" style="edgeStyle=none;rounded=0;orthogonalLoop=1;jettySize=auto;html=1;exitX=0.5;exitY=0.5;exitDx=0;exitDy=0;exitPerimeter=0;entryX=1;entryY=0.5;entryDx=0;entryDy=0;strokeColor=default;endArrow=none;endFill=0;" parent="1" source="UIeDzAxWS5lL4gKu8RH2-7" target="UIeDzAxWS5lL4gKu8RH2-9" edge="1">
          <mxGeometry relative="1" as="geometry" />
        </mxCell>
        <mxCell id="UIeDzAxWS5lL4gKu8RH2-3" style="edgeStyle=none;rounded=0;orthogonalLoop=1;jettySize=auto;html=1;exitX=0.5;exitY=0.5;exitDx=0;exitDy=0;exitPerimeter=0;entryX=1;entryY=0;entryDx=0;entryDy=0;endArrow=none;endFill=0;" parent="1" source="UIeDzAxWS5lL4gKu8RH2-7" target="UIeDzAxWS5lL4gKu8RH2-12" edge="1">
          <mxGeometry relative="1" as="geometry" />
        </mxCell>
        <mxCell id="UIeDzAxWS5lL4gKu8RH2-4" style="edgeStyle=none;rounded=0;orthogonalLoop=1;jettySize=auto;html=1;exitX=0.5;exitY=0.5;exitDx=0;exitDy=0;exitPerimeter=0;entryX=0;entryY=0;entryDx=0;entryDy=0;endArrow=none;endFill=0;" parent="1" source="UIeDzAxWS5lL4gKu8RH2-7" target="UIeDzAxWS5lL4gKu8RH2-13" edge="1">
          <mxGeometry relative="1" as="geometry" />
        </mxCell>
        <mxCell id="UIeDzAxWS5lL4gKu8RH2-5" style="edgeStyle=none;rounded=0;orthogonalLoop=1;jettySize=auto;html=1;exitX=0.5;exitY=0.5;exitDx=0;exitDy=0;exitPerimeter=0;entryX=0.5;entryY=1;entryDx=0;entryDy=0;endArrow=none;endFill=0;" parent="1" source="UIeDzAxWS5lL4gKu8RH2-7" target="UIeDzAxWS5lL4gKu8RH2-8" edge="1">
          <mxGeometry relative="1" as="geometry" />
        </mxCell>
        <mxCell id="UIeDzAxWS5lL4gKu8RH2-6" style="edgeStyle=none;rounded=0;orthogonalLoop=1;jettySize=auto;html=1;exitX=0.5;exitY=0.5;exitDx=0;exitDy=0;exitPerimeter=0;entryX=0;entryY=0.5;entryDx=0;entryDy=0;endArrow=none;endFill=0;" parent="1" source="UIeDzAxWS5lL4gKu8RH2-7" target="UIeDzAxWS5lL4gKu8RH2-15" edge="1">
          <mxGeometry relative="1" as="geometry" />
        </mxCell>
        <mxCell id="UIeDzAxWS5lL4gKu8RH2-24" style="rounded=0;orthogonalLoop=1;jettySize=auto;html=1;exitX=0.5;exitY=0;exitDx=0;exitDy=0;exitPerimeter=0;entryX=0.5;entryY=1;entryDx=0;entryDy=0;endArrow=none;endFill=0;" parent="1" source="UIeDzAxWS5lL4gKu8RH2-7" target="UIeDzAxWS5lL4gKu8RH2-22" edge="1">
          <mxGeometry relative="1" as="geometry" />
        </mxCell>
        <mxCell id="UIeDzAxWS5lL4gKu8RH2-7" value="管理员用户" style="shape=umlActor;verticalLabelPosition=bottom;verticalAlign=top;html=1;outlineConnect=0;strokeColor=default;" parent="1" vertex="1">
          <mxGeometry x="390" y="219" width="47" height="94" as="geometry" />
        </mxCell>
        <mxCell id="UIeDzAxWS5lL4gKu8RH2-8" value="用户登录" style="ellipse;whiteSpace=wrap;html=1;strokeColor=default;" parent="1" vertex="1">
          <mxGeometry x="210" y="80" width="86" height="49" as="geometry" />
        </mxCell>
        <mxCell id="UIeDzAxWS5lL4gKu8RH2-9" value="用户注册" style="ellipse;whiteSpace=wrap;html=1;strokeColor=default;" parent="1" vertex="1">
          <mxGeometry x="196" y="170" width="86" height="49" as="geometry" />
        </mxCell>
        <mxCell id="UIeDzAxWS5lL4gKu8RH2-10" value="地图检索" style="ellipse;whiteSpace=wrap;html=1;strokeColor=default;" parent="1" vertex="1">
          <mxGeometry x="560" y="80" width="86" height="49" as="geometry" />
        </mxCell>
        <mxCell id="UIeDzAxWS5lL4gKu8RH2-11" value="城市内景" style="ellipse;whiteSpace=wrap;html=1;strokeColor=default;" parent="1" vertex="1">
          <mxGeometry x="551" y="180" width="86" height="49" as="geometry" />
        </mxCell>
        <mxCell id="UIeDzAxWS5lL4gKu8RH2-12" value="实时天气" style="ellipse;whiteSpace=wrap;html=1;strokeColor=default;" parent="1" vertex="1">
          <mxGeometry x="190" y="250" width="86" height="49" as="geometry" />
        </mxCell>
        <mxCell id="UIeDzAxWS5lL4gKu8RH2-13" value="实时交通" style="ellipse;whiteSpace=wrap;html=1;strokeColor=default;" parent="1" vertex="1">
          <mxGeometry x="551" y="397" width="86" height="49" as="geometry" />
        </mxCell>
        <mxCell id="UIeDzAxWS5lL4gKu8RH2-14" value="智能车位" style="ellipse;whiteSpace=wrap;html=1;strokeColor=default;" parent="1" vertex="1">
          <mxGeometry x="551" y="320" width="86" height="49" as="geometry" />
        </mxCell>
        <mxCell id="UIeDzAxWS5lL4gKu8RH2-15" value="交通规划" style="ellipse;whiteSpace=wrap;html=1;strokeColor=default;" parent="1" vertex="1">
          <mxGeometry x="551" y="241.5" width="86" height="49" as="geometry" />
        </mxCell>
        <mxCell id="UIeDzAxWS5lL4gKu8RH2-16" style="edgeStyle=none;rounded=0;orthogonalLoop=1;jettySize=auto;html=1;exitX=0.5;exitY=0.5;exitDx=0;exitDy=0;exitPerimeter=0;entryX=0.044;entryY=0.729;entryDx=0;entryDy=0;entryPerimeter=0;endArrow=none;endFill=0;" parent="1" source="UIeDzAxWS5lL4gKu8RH2-7" target="UIeDzAxWS5lL4gKu8RH2-11" edge="1">
          <mxGeometry relative="1" as="geometry" />
        </mxCell>
        <mxCell id="UIeDzAxWS5lL4gKu8RH2-17" style="edgeStyle=none;rounded=0;orthogonalLoop=1;jettySize=auto;html=1;exitX=0.5;exitY=1;exitDx=0;exitDy=0;entryX=0.5;entryY=0.5;entryDx=0;entryDy=0;entryPerimeter=0;endArrow=none;endFill=0;" parent="1" source="UIeDzAxWS5lL4gKu8RH2-10" target="UIeDzAxWS5lL4gKu8RH2-7" edge="1">
          <mxGeometry relative="1" as="geometry" />
        </mxCell>
        <mxCell id="UIeDzAxWS5lL4gKu8RH2-28" style="rounded=0;orthogonalLoop=1;jettySize=auto;html=1;exitX=1;exitY=0;exitDx=0;exitDy=0;endArrow=none;endFill=0;" parent="1" source="UIeDzAxWS5lL4gKu8RH2-18" edge="1">
          <mxGeometry relative="1" as="geometry">
            <mxPoint x="390" y="310" as="targetPoint" />
          </mxGeometry>
        </mxCell>
        <mxCell id="UIeDzAxWS5lL4gKu8RH2-18" value="资源管理" style="ellipse;whiteSpace=wrap;html=1;strokeColor=default;" parent="1" vertex="1">
          <mxGeometry x="190" y="330" width="86" height="49" as="geometry" />
        </mxCell>
        <mxCell id="UIeDzAxWS5lL4gKu8RH2-27" style="rounded=0;orthogonalLoop=1;jettySize=auto;html=1;exitX=1;exitY=0;exitDx=0;exitDy=0;endArrow=none;endFill=0;" parent="1" source="UIeDzAxWS5lL4gKu8RH2-19" edge="1">
          <mxGeometry relative="1" as="geometry">
            <mxPoint x="390" y="310" as="targetPoint" />
          </mxGeometry>
        </mxCell>
        <mxCell id="UIeDzAxWS5lL4gKu8RH2-19" value="规划管理" style="ellipse;whiteSpace=wrap;html=1;strokeColor=default;" parent="1" vertex="1">
          <mxGeometry x="190" y="397" width="86" height="49" as="geometry" />
        </mxCell>
        <mxCell id="UIeDzAxWS5lL4gKu8RH2-20" value="设施管理" style="ellipse;whiteSpace=wrap;html=1;strokeColor=default;" parent="1" vertex="1">
          <mxGeometry x="190" y="462" width="86" height="49" as="geometry" />
        </mxCell>
        <mxCell id="UIeDzAxWS5lL4gKu8RH2-21" value="服务管理" style="ellipse;whiteSpace=wrap;html=1;strokeColor=default;" parent="1" vertex="1">
          <mxGeometry x="551" y="470" width="86" height="49" as="geometry" />
        </mxCell>
        <mxCell id="UIeDzAxWS5lL4gKu8RH2-22" value="资源调度" style="ellipse;whiteSpace=wrap;html=1;strokeColor=default;" parent="1" vertex="1">
          <mxGeometry x="371" y="70" width="86" height="49" as="geometry" />
        </mxCell>
        <mxCell id="UIeDzAxWS5lL4gKu8RH2-25" style="rounded=0;orthogonalLoop=1;jettySize=auto;html=1;exitX=0.5;exitY=0;exitDx=0;exitDy=0;endArrow=none;endFill=0;" parent="1" source="UIeDzAxWS5lL4gKu8RH2-23" target="UIeDzAxWS5lL4gKu8RH2-7" edge="1">
          <mxGeometry relative="1" as="geometry" />
        </mxCell>
        <mxCell id="UIeDzAxWS5lL4gKu8RH2-23" value="应急处理" style="ellipse;whiteSpace=wrap;html=1;strokeColor=default;" parent="1" vertex="1">
          <mxGeometry x="371" y="480" width="86" height="49" as="geometry" />
        </mxCell>
        <mxCell id="UIeDzAxWS5lL4gKu8RH2-26" style="rounded=0;orthogonalLoop=1;jettySize=auto;html=1;exitX=1;exitY=0;exitDx=0;exitDy=0;entryX=0;entryY=1;entryDx=0;entryDy=0;entryPerimeter=0;endArrow=none;endFill=0;" parent="1" source="UIeDzAxWS5lL4gKu8RH2-20" target="UIeDzAxWS5lL4gKu8RH2-7" edge="1">
          <mxGeometry relative="1" as="geometry" />
        </mxCell>
      </root>
    </mxGraphModel>
  </diagram>
</mxfile>
